<svg width="390" height="800" viewBox="0 0 390 800" fill="none" xmlns="http://www.w3.org/2000/svg">
<g clip-path="url(#clip0_1065_4486)">
<path d="M387.5 95.032L387.5 664.379L387.5 764C387.5 806.802 352.802 841.5 310 841.5L193.443 841.5C166.553 841.5 142.242 825.498 131.61 800.799L93.3043 711.815C81.9162 685.36 44.2161 685.916 33.6125 712.695C27.0654 729.229 2.49992 724.542 2.49992 706.759L2.49996 75.0186C2.49996 34.9678 34.9675 2.50026 75.0182 2.50021C111.111 2.50021 144.081 22.9657 160.097 55.3102L205.395 146.792C216.243 168.7 238.575 182.561 263.022 182.561L266.612 182.561C294.395 182.561 319.556 166.15 330.754 140.723L353.984 87.9783C361.616 70.6506 387.5 76.0981 387.5 95.032Z" stroke="black" stroke-width="5"/>
<path d="M145.437 288.217C146.692 291.771 147.529 295.41 150.039 298.923C150.248 292.064 149.704 290.726 145.437 288.217Z" fill="white"/>
<path d="M402.141 527.255C395.572 516.717 387.873 507.099 378.835 498.567C378.667 498.4 378.584 498.233 378.667 497.898C379.086 497.731 379.546 497.522 380.048 497.355C385.864 495.264 391.597 492.964 397.12 490.162C398.25 489.576 399.38 489.033 400.3 488.113C401.681 486.774 401.723 485.478 400.426 484.014C399.38 482.843 398.041 481.965 396.743 481.129C390.551 477.031 384.232 473.058 377.663 469.587C376.994 469.21 376.115 469.043 375.738 468.249C375.989 468.039 376.115 467.872 376.324 467.747C388.333 459.508 397.915 448.886 406.535 437.344C407.413 436.131 408.166 434.835 408.627 433.413C409.547 430.82 408.836 428.938 406.493 427.517C405.196 426.722 403.815 426.262 402.35 425.886C395.948 424.297 389.463 423.544 382.893 423.669C382.015 423.669 381.136 423.837 380.216 423.502C380.425 422.54 381.094 422.038 381.596 421.411C385.111 417.062 388.082 412.336 390.3 407.193C393.229 400.46 394.526 393.434 393.689 386.074C392.685 376.999 386.408 369.681 377.579 367.255C372.851 365.959 368.123 366.21 363.437 367.172C354.273 369.053 345.821 372.65 338.08 377.835C326.406 385.614 317.326 395.65 312.012 408.74C309.334 415.347 307.87 422.247 306.907 429.273C306.614 431.322 306.447 433.371 306.238 435.337C305.736 435.42 305.485 435.253 305.275 435.044C303.1 432.786 300.966 430.528 298.79 428.269C295.944 425.258 295.275 421.662 296.112 417.689C296.447 416.225 296.949 414.845 297.535 413.465C299.459 408.949 302.807 405.562 306.405 402.425C309.209 400 312.138 397.658 314.983 395.274C319.293 391.636 323.1 387.579 325.946 382.728C330.088 375.786 332.264 368.342 331.176 360.146C329.921 350.527 325.192 343.126 317.033 337.982C314.104 336.142 310.84 334.971 307.368 334.845C298.413 334.511 290.756 340.24 288.078 349.147C286.739 353.664 286.906 358.264 287.367 362.864C287.953 368.426 288.999 373.904 290.087 379.383C291.593 386.994 291.342 394.479 288.873 401.84C288.622 402.592 288.58 403.471 287.827 404.056C287.158 403.596 287.074 402.801 286.739 402.174C286.237 401.087 285.819 399.958 285.233 398.954C283.601 396.027 282.136 395.441 279.082 396.361C278.789 396.027 278.998 395.65 279.04 395.274C279.877 388.959 279.877 382.645 279.124 376.372C276.906 358.682 271.759 341.787 264.981 325.352C264.353 323.847 263.558 322.383 262.721 321.003C261.173 318.494 259.709 318.243 257.449 320.209C254.897 322.383 252.428 324.641 250.252 327.234C249.876 327.694 249.583 328.238 248.788 328.447C245.608 324.892 242.302 321.38 240.461 316.821C240.377 316.612 240.336 316.403 240.252 316.194C239.792 315.19 239.917 314.396 240.88 313.685C245.44 310.339 247.951 305.53 250.001 300.428C251.34 297.124 251.842 293.695 251.298 290.141C249.75 279.937 243.809 273.037 234.812 268.562C233.139 267.726 231.298 267.266 229.457 267.14C228.201 267.056 227.281 266.555 226.235 265.885C219.916 261.745 213.054 260.282 205.606 262.08C205.188 262.164 204.769 262.498 204.309 261.954C204.895 258.943 205.146 255.891 204.686 252.712C202.886 239.414 191.129 230.841 178.199 233.476C171.672 234.814 166.4 238.034 163.973 244.725C163.847 245.06 163.764 245.436 163.136 245.436C160.458 241.672 156.65 239.539 152.131 238.536C150.165 238.076 148.198 237.867 146.148 237.908C132.8 238.159 126.942 249.66 127.946 258.734C128.365 262.624 129.62 266.262 131.461 269.733C134.055 274.542 137.026 279.059 140.792 283.031C141.922 284.202 142.675 285.457 143.01 287.046C144.307 292.524 146.399 297.668 149.663 302.31C149.914 302.686 150.165 303.063 150.165 303.523C150.165 305.948 149.704 308.332 149.328 310.716C148.198 310.716 147.654 310.005 146.901 309.712C145.018 308.917 143.763 309.377 142.926 311.259C142.633 311.887 142.424 312.514 142.173 313.099C141.503 314.814 140.332 315.776 138.449 316.236C133.721 317.323 129.243 319.121 125.226 321.965C122.8 323.68 120.917 325.812 119.912 328.656C118.866 331.625 118.322 334.72 117.946 337.814C116.649 349.9 116.398 362.028 116.523 374.155C116.565 378.463 117.109 382.77 117.151 387.077C117.193 393.769 117.109 400.46 116.983 407.151C116.858 413.34 116.942 419.487 116.774 425.677C116.649 430.653 116.523 435.63 117.193 440.606C117.569 443.324 118.992 444.704 121.502 445.29C122.339 445.499 123.218 445.583 124.055 446.126C116.816 455.201 107.569 462.101 99.9954 470.925C99.7861 470.298 99.6606 470.047 99.6188 469.754C98.3635 463.481 97.1501 457.208 95.8111 450.935C94.3466 444.119 94.8906 437.47 97.443 430.988C98.3216 428.771 99.0748 426.513 99.7861 424.255C100.707 421.369 102.087 418.818 103.929 416.393C108.029 411.082 110.33 405.018 111.377 398.452C113.05 387.956 112.213 377.543 110.247 367.172C107.443 352.618 102.087 338.902 96.0621 325.436C95.8111 324.892 95.56 324.349 95.2253 323.847C93.8863 321.881 92.0034 321.965 90.8737 324.056C90.2879 325.101 90.0786 326.314 89.8694 327.485C88.2376 336.142 85.6015 344.506 82.0867 352.577C79.2832 359.059 76.3961 365.499 74.304 372.273C71.1658 382.519 72.8395 391.97 78.9903 400.669C81.4172 404.056 84.0533 407.276 86.9404 410.287C89.5347 412.964 92.0453 415.724 94.5977 418.4C96.355 420.24 96.9408 421.996 95.7692 424.589C93.5516 429.566 92.0034 434.751 91.7523 440.271C91.6687 442.237 91.9197 444.161 91.9616 446.293C91.2502 445.792 91.2084 445.248 90.9992 444.788C86.3128 432.828 80.4548 421.495 73.76 410.538C71.7097 407.193 69.785 403.721 67.8602 400.292C65.7262 396.529 65.2241 392.598 66.1865 388.458C66.5631 386.952 66.8978 385.405 67.3581 383.941C68.6552 379.926 69.9942 375.87 71.375 371.855C73.6345 365.206 75.4337 358.473 76.1032 351.489C78.1116 331.249 71.6679 314.312 56.1861 300.972C51.2487 296.748 45.9346 293.068 40.4114 289.681C37.3569 287.841 34.0932 286.335 30.7458 285.164C29.616 284.746 28.4863 284.411 27.2728 284.411C25.1807 284.453 24.1346 285.499 24.0091 287.548C23.9254 288.844 24.2602 290.057 24.5949 291.27C27.5657 302.352 28.6536 313.643 28.6118 325.06C28.57 328.907 28.57 332.796 28.9465 336.644C29.7415 344.547 31.3734 352.2 35.0137 359.351C37.064 363.408 39.3654 367.297 42.0014 371.019C47.5665 378.839 54.1358 385.907 59.9101 393.559C60.4959 394.312 61.2491 394.981 61.9185 395.65C62.4207 396.11 62.7972 396.612 63.0483 397.281C64.0525 400.167 65.6007 402.801 67.1907 405.436C73.0068 415.055 78.7393 424.715 83.342 435.002C83.6349 435.63 84.0951 436.257 84.0951 437.051C83.5512 436.8 83.3838 436.382 83.1328 436.006C75.2245 425.007 65.9354 415.305 55.5585 406.607C53.3826 404.809 51.1231 403.094 48.3615 402.258C47.5665 402.007 47.3573 401.463 47.1062 400.836C43.8844 391.51 38.6122 383.356 32.7961 375.494C30.5366 372.441 28.2771 369.388 26.2268 366.21C21.5822 358.975 19.1135 351.029 19.1554 342.373C19.1554 338.734 19.4064 335.096 19.9922 331.5C20.7035 327.151 20.9546 322.801 19.7412 318.452C18.6114 314.354 16.603 310.757 14.0924 307.37C10.3266 302.268 6.47703 297.292 3.42252 291.688C3.17146 291.228 2.87856 290.81 2.50198 290.433C1.28854 289.137 0.0332642 289.095 -1.18017 290.35C-1.8915 291.102 -2.51914 291.939 -3.06309 292.859C-5.86655 297.543 -8.08421 302.477 -9.33949 307.83C-11.3061 316.152 -10.5948 324.181 -6.78709 331.96C-3.31415 339.069 1.87434 344.547 8.44364 348.813C10.6195 350.235 12.7953 351.698 14.7619 353.413C16.603 355.044 18.6532 356.549 19.6575 358.85C23.0049 366.67 27.9005 373.486 32.8797 380.261C34.679 382.728 36.4782 385.196 38.0682 387.788C40.6206 391.929 42.8801 396.152 44.6375 400.711C45.1396 402.007 45.2233 402.969 44.2191 404.14C42.8801 405.645 42.0433 407.527 41.4993 409.493C39.7838 415.431 38.3611 421.453 37.7753 427.6C37.6498 428.897 37.3988 430.151 37.2314 431.406C36.1853 431.406 35.5995 430.946 34.93 430.653C31.8337 429.231 28.7373 427.768 25.5991 426.346C23.507 425.384 21.2893 424.715 18.988 424.422C16.059 424.046 14.4271 425.551 14.5527 428.478C14.5945 429.691 14.9293 430.82 15.3477 431.949C16.1845 434.208 17.2724 436.299 18.4859 438.348C23.6744 447.255 29.7415 455.535 36.5201 463.272C36.9803 463.816 37.608 464.276 37.7335 465.112C35.3066 463.147 32.5032 461.934 29.7415 460.679C23.0886 457.71 17.5653 453.277 13.3392 447.297C10.996 443.993 9.86629 440.271 9.94997 436.173C10.0755 430.779 11.0379 425.551 13.3392 420.575C14.9711 417.062 16.603 413.549 18.2348 410.036C22.1262 401.589 23.2559 392.807 21.4985 383.69C19.5319 373.319 14.0087 365.206 5.30544 359.226C3.71542 358.139 2.04171 357.177 0.11695 356.717C-2.1844 356.215 -3.77442 356.884 -4.94601 358.933C-5.61549 360.104 -5.99208 361.4 -6.32682 362.697C-7.95868 369.346 -9.00475 376.121 -9.92529 382.896C-10.5529 387.537 -11.1387 392.179 -11.0132 396.905C-10.6785 407.694 -7.45657 417.522 -1.18017 426.304C1.66513 430.319 4.42674 434.375 6.68624 438.724C7.06283 439.435 7.39757 440.146 7.60678 440.982C8.61101 445.206 10.8287 448.803 13.8413 451.897C15.6406 453.779 17.6072 455.494 19.6575 457.083C20.0759 457.417 20.6617 457.668 20.8291 458.421C17.3561 458.254 14.2179 458.965 11.2053 460.387C8.40179 461.725 6.01676 463.565 3.7991 465.698C-3.23046 472.514 -8.50264 480.585 -13.189 489.074C-13.3145 489.284 -13.3982 489.493 -13.4819 489.66C-14.5698 492.253 -13.984 493.716 -11.3479 494.72C-9.88344 495.306 -8.37711 495.64 -6.78709 495.766C-5.28075 495.891 -3.77442 496.1 -2.26808 496.267C-2.30992 497.355 -2.89572 497.982 -3.31415 498.651C-5.48996 502.038 -7.24736 505.635 -9.00475 509.273C-9.5487 510.36 -9.96713 511.448 -10.1763 512.619C-10.4692 514.459 -9.79976 515.797 -8.12605 516.633C-7.20551 517.093 -6.15945 517.386 -5.15522 517.595C1.33039 518.933 7.89968 519.728 14.469 520.732C16.1845 520.983 17.9838 520.941 19.5738 521.652C19.5319 522.237 19.1554 522.404 18.8625 522.613C16.8122 523.993 15.1803 525.834 13.6321 527.757C8.90391 533.486 9.7826 538.965 16.1008 542.979C20.9964 546.074 26.3941 547.161 32.1266 546.367C35.2229 545.949 38.2774 545.279 41.332 544.527C51.2905 542.018 61.1654 542.77 70.831 545.698C78.5301 548.04 86.0618 550.8 93.7608 553.141C100.288 555.149 106.816 557.323 113.552 558.494C116.983 559.08 116.983 559.038 116.272 562.551C114.891 569.576 113.385 576.56 112.297 583.586C111.837 586.597 111.042 589.231 109.117 591.657C105.77 595.839 104.975 600.774 105.309 605.959C105.477 608.51 106.272 609.472 108.699 609.932C110.038 610.183 111.377 610.141 112.716 609.848C116.523 609.054 120.373 608.677 124.18 608.176C128.072 607.674 131.796 606.712 134.557 603.575C135.687 602.279 136.691 600.899 137.528 599.393C138.867 597.052 139.537 594.417 140.834 592.117C142.382 589.315 143.261 586.388 143.93 583.335C145.98 573.967 149.202 564.893 151.838 555.651C152.089 554.814 152.424 554.187 153.387 554.02C156.985 553.434 160.584 552.891 164.266 552.849C165.437 552.849 165.856 553.392 165.856 554.48C165.856 555.065 165.856 555.651 165.856 556.278C165.939 561.129 165.981 565.938 166.149 570.789C166.232 573.215 166.274 575.766 167.236 578.024C167.864 579.488 167.864 580.826 167.655 582.331C166.985 586.597 168.115 590.444 170.919 593.748C172.258 595.337 173.931 596.341 176.065 596.508C178.576 596.717 181.086 596.926 183.639 597.135C186.986 597.386 190.334 597.595 193.681 597.763C199.246 598.055 204.811 598.557 210.418 597.972C212.05 597.804 213.682 597.637 215.188 596.926C217.238 595.923 217.406 594.082 215.481 592.786C214.519 592.117 213.431 591.615 212.343 591.113C206.778 588.479 201.171 585.844 195.815 582.749C195.104 582.331 194.309 582.122 193.848 581.369C195.355 579.237 195.397 579.195 195.815 576.058C196.443 571.249 197.028 566.482 197.614 561.673C197.865 559.623 198.033 559.498 199.957 560.083C207.489 562.425 215.021 564.809 222.804 566.064C223.975 566.273 224.352 566.858 224.686 567.904C226.025 572.462 226.235 577.146 225.858 581.829C225.649 584.631 225.398 587.475 225.607 590.277C225.942 595.295 227.908 599.477 232.176 602.363C234.98 604.286 236.528 603.994 238.578 601.234C238.829 600.857 239.08 600.523 239.331 600.104C240.963 597.428 242.177 594.542 243.265 591.615C244.896 587.141 244.771 582.708 242.804 578.358C242.135 576.853 241.507 575.347 240.754 573.884C239.792 572.044 239.708 570.036 239.248 568.071C239.08 567.444 239.457 567.109 240.085 567.025C240.545 566.984 240.963 566.984 241.423 566.942C248.411 566.398 255.064 564.684 261.131 561.003C262.219 560.334 263.307 559.749 264.437 559.122C267.115 557.658 269.96 556.947 273.015 557.031C275.483 557.072 277.91 557.449 280.337 557.825C283.643 558.327 286.99 558.745 290.338 558.411C291.425 558.285 292.179 558.536 292.974 559.122C297.074 562.3 301.426 565.227 305.777 568.071C311.05 571.458 316.489 574.511 322.263 576.978C325.318 578.317 328.456 579.028 331.804 579.028C334.565 578.986 336.49 577.731 337.494 575.138C337.954 573.884 338.457 572.629 338.708 571.333C339.879 565.269 340.716 559.163 340.674 552.932C340.674 550.298 340.674 550.298 343.269 551.092C352.223 553.894 361.345 555.358 370.717 555.358C377.287 555.358 383.772 554.396 390.216 553.392C396.241 552.431 402.225 551.26 408.083 549.545C412.393 548.29 413.104 546.325 411.012 542.394C408.208 537.334 405.279 532.232 402.141 527.255ZM87.8191 406.314C85.1831 403.262 82.7143 400.125 80.4548 396.78C79.4088 395.232 78.5719 393.601 77.8606 391.887C75.4337 385.907 75.6011 379.843 77.3166 373.737C79.1577 367.213 81.9612 361.024 84.8065 354.919C88.5305 346.847 91.1247 338.442 93.0913 329.785C93.175 329.367 93.3005 328.949 93.4261 328.572C93.9282 328.447 94.0119 328.782 94.0955 329.032C98.6564 340.156 103.468 351.197 106.021 363.073C108.029 372.357 108.992 381.725 108.489 391.176C108.238 396.403 107.443 401.505 105.393 406.398C104.054 409.576 102.255 412.462 100.205 415.222C99.4932 416.184 98.8238 417.145 98.0287 418.275C95.0161 413.758 91.2084 410.245 87.8191 406.314ZM62.7554 388.165C62.5462 389.294 62.7554 390.548 62.1696 391.594C61.7093 391.594 61.542 391.343 61.3746 391.092C57.5669 385.781 53.2571 380.805 49.1984 375.703C45.6836 371.27 42.6291 366.544 39.8256 361.568C35.5158 353.873 33.5911 345.551 32.7542 336.894C32.4195 333.465 32.2521 330.078 32.3358 326.649C32.545 314.521 31.3316 302.603 28.1934 290.852C27.9842 290.015 27.3984 288.928 27.9842 288.301C28.7373 287.506 29.8252 288.301 30.6621 288.593C33.4655 289.597 36.1853 290.81 38.7377 292.357C45.4744 296.497 51.9182 301.014 57.5251 306.617C65.6007 314.647 69.9523 324.391 71.5005 335.598C73.1324 347.642 71.5005 359.31 67.6928 370.768C65.8517 376.539 63.8433 382.226 62.7554 388.165ZM17.6072 352.075C13.8413 348.729 9.53155 346.22 5.76571 343C-2.72835 335.765 -7.20551 326.691 -6.87077 315.483C-6.66156 309.252 -4.61127 303.565 -1.84965 298.086C-1.05464 296.497 -0.217792 294.95 0.577219 293.444C1.45591 293.695 1.58144 294.323 1.87434 294.824C4.34306 299.257 7.14651 303.439 10.201 307.454C10.6613 308.039 11.0797 308.666 11.54 309.252C16.8959 315.943 18.4859 323.512 17.2306 331.876C16.2264 338.525 16.1427 345.258 17.6072 352.075ZM7.35573 431.615C7.27204 432.159 7.39757 432.786 6.81177 433.539C2.33461 426.178 -2.85388 419.487 -5.32259 411.291C-7.49841 404.14 -8.29342 396.947 -7.5821 389.503C-6.78709 381.265 -5.65734 373.11 -3.81626 365.081C-3.48152 363.617 -3.06309 362.195 -2.51914 360.815C-1.93334 359.268 -1.34754 359.059 0.28432 359.477C1.33039 359.728 2.25093 360.23 3.08778 360.815C12.3768 367.046 17.5235 375.786 18.7788 386.827C19.6575 394.563 18.444 401.923 15.0966 408.949C14.1761 410.873 13.3811 412.922 12.4187 414.845C9.82444 420.156 8.06705 425.718 7.35573 431.615ZM396.994 486.691C397.204 486.733 397.371 486.858 397.706 486.984C397.162 487.778 396.325 487.987 395.656 488.322C383.563 494.469 370.759 498.484 357.537 501.286C346.992 503.544 336.239 504.715 325.485 505.468C320.13 505.844 314.774 505.928 309.418 506.053C303.183 506.179 296.907 505.719 290.672 505.551C283.601 505.342 276.529 505.175 269.458 504.966C268.203 504.924 266.989 504.966 265.734 504.966C265.692 504.757 265.692 504.548 265.65 504.38C270.42 501.913 273.852 498.024 277.325 494.135C280.295 490.789 283.685 487.904 287.367 485.311C289.124 484.098 291.174 484.014 293.099 483.722C306.782 481.84 320.548 481.547 334.314 482.133C339.963 482.383 345.612 482.383 351.26 482.592C360.801 482.969 370.299 483.429 379.797 484.14C385.613 484.558 391.304 485.729 396.994 486.691ZM315.527 540.679C314.899 534.699 313.309 529.012 309.92 523.952C309.711 523.659 309.543 523.324 309.334 522.99C309.292 522.948 309.334 522.864 309.418 522.572C310.464 522.739 311.552 522.864 312.598 523.115C314.188 523.492 315.318 524.454 315.611 526.084C316.573 531.521 318.874 536.581 320.422 541.85C321.427 545.279 321.427 548.876 321.217 552.472C321.176 553.058 321.134 553.769 320.548 554.061C319.92 554.396 319.46 553.769 319 553.434C317.703 552.431 316.657 551.134 315.694 549.838C314.313 547.956 312.807 546.158 311.677 543.941C315.067 544.652 315.862 544.067 315.527 540.679ZM313.602 538.087C313.769 539.174 313.937 540.303 314.021 541.39C314.062 542.018 313.686 542.352 313.016 542.101C310.84 541.307 308.79 540.596 307.409 538.421C304.731 534.114 300.798 531.186 295.903 529.765C294.145 529.263 292.262 529.137 290.421 528.803C280.379 527.046 270.462 524.788 260.504 522.572C255.357 521.401 250.21 520.23 245.064 518.975C242.846 518.432 241.8 517.093 241.172 515.17C240.085 511.74 239.457 508.27 238.746 504.757C237.072 496.309 236.319 487.694 234.31 479.289C234.059 478.285 233.808 477.281 233.599 476.236C233.222 474.438 233.306 474.271 235.105 474.271C237.867 474.229 240.628 474.271 243.348 474.271C248.035 474.312 252.721 474.312 257.366 473.476C258.83 473.225 259.039 473.476 258.956 475.023C258.495 482.3 257.742 489.534 256.319 496.686C255.399 501.244 256.654 505.008 260.671 507.768C262.889 509.315 265.274 510.57 267.743 511.49C277.785 515.211 287.911 518.682 298.413 520.941C300.589 521.401 302.723 522.07 304.982 522.07C306.363 522.07 307.116 522.948 307.786 523.952C310.757 528.259 312.723 532.985 313.602 538.087ZM227.071 478.285C227.071 477.783 227.03 477.24 227.071 476.738C227.113 475.943 226.695 474.898 227.448 474.438C228.41 473.852 229.624 474.103 230.712 474.271C231.214 474.354 231.339 474.856 231.465 475.274C232.218 477.825 232.595 480.46 233.097 483.094C233.264 483.931 232.888 484.349 232.051 484.391C231.967 484.391 231.883 484.391 231.842 484.391C227.867 484.809 227.406 484.433 227.197 480.502C227.155 479.749 227.197 479.038 227.197 478.285C227.155 478.285 227.113 478.285 227.071 478.285ZM228.871 471.092C222.594 470.841 216.36 471.26 210.209 472.305C208.2 472.64 206.359 473.392 204.435 474.02C201.38 475.065 201.338 475.065 200.962 471.761C200.669 469.085 200.627 466.408 200.334 463.774C200.208 462.394 200.794 461.767 202.008 461.307C206.15 459.634 210.46 458.505 214.895 457.71C223.473 456.163 232.093 456.497 240.712 456.999C245.817 457.292 250.964 457.626 256.068 456.79C260.043 456.121 263.893 454.95 267.115 452.399C267.826 451.814 268.412 451.688 268.914 452.608C271.467 457.041 274.019 461.474 276.697 466.199C268.245 468.541 260.211 470.465 251.801 471.009C244.185 471.51 236.528 471.427 228.871 471.092ZM199.957 457.668C199.832 453.57 199.497 454.406 202.928 453.068C211.339 449.764 220.126 449.263 229.038 449.848C237.365 450.392 245.691 450.434 253.851 448.301C256.947 447.464 260.002 446.461 262.68 444.662C263.6 444.035 264.102 444.161 264.604 445.123C264.981 445.917 265.483 446.67 265.901 447.464C266.989 449.43 266.948 449.681 265.274 451.186C264.311 452.023 263.14 452.566 261.968 453.026C258.119 454.532 254.144 455.326 250.001 455.326C243.683 455.326 237.365 454.741 231.047 454.657C221.255 454.615 211.59 455.619 202.426 459.383C200.208 460.303 200.041 460.219 199.957 457.668ZM263.475 479.08C267.659 477.323 271.592 475.023 275.274 472.347C275.734 472.012 276.111 471.469 276.906 471.594C277.157 473.225 276.99 474.689 275.986 476.194C273.391 479.958 271.634 484.14 269.876 488.322C268.747 490.998 267.659 493.675 266.236 496.226C264.939 498.484 263.475 500.658 261.299 502.206C259.834 503.251 259.374 503.042 259.248 501.327C259.165 500.366 259.207 499.404 259.29 498.442C259.918 493.047 260.587 487.653 261.215 482.258C261.382 480.711 261.968 479.749 263.475 479.08ZM265.776 471.97C266.989 471.72 268.245 471.427 269.458 471.134C270.588 470.883 271.718 470.59 272.973 470.465C269.877 473.601 266.111 475.692 262.219 477.783C262.01 477.407 261.926 477.365 261.926 477.281C261.508 472.89 261.508 472.932 265.776 471.97ZM264.604 507.6C265.525 507.14 266.194 507.308 266.822 507.308C271.048 507.308 275.274 507.391 279.542 507.349C280.923 507.349 281.927 507.684 282.848 508.729C285.149 511.364 287.576 513.831 290.254 516.173C281.551 513.957 273.057 511.197 264.604 507.6ZM394.358 483.053C394.609 483.22 394.902 483.303 394.861 483.554C361.303 478.536 327.703 477.909 294.062 481.212C294.313 480.794 294.982 480.669 295.526 480.376C303.392 476.111 310.799 471.134 317.996 465.865C318.581 465.447 319.251 465.028 319.795 464.568C321.427 463.188 323.31 462.77 325.36 462.603C329 462.31 332.64 462.017 336.281 462.101C348.583 462.436 360.215 465.53 371.429 470.507C379.421 474.061 386.952 478.411 394.358 483.053ZM405.07 434.919C396.576 446.795 386.617 457.25 374.525 465.572C373.019 466.618 371.763 466.827 370.048 466.032C358.583 460.763 346.449 458.463 333.854 458.839C333.561 458.839 333.268 458.839 332.975 458.797C332.933 458.797 332.892 458.714 332.85 458.672C337.411 455.828 396.869 435.546 405.614 433.915C405.363 434.417 405.237 434.668 405.07 434.919ZM399.84 427.349C401.597 427.726 403.313 428.269 404.903 429.064C405.405 429.357 405.949 429.649 406.367 430.068C407.162 430.904 407.037 431.531 405.949 431.908C404.15 432.577 402.308 433.162 400.426 433.706C379.755 439.811 359.211 446.377 339.042 453.988C338.457 454.197 337.829 454.406 337.243 454.615C342.097 451.646 346.909 448.719 351.679 445.708C358.667 441.317 365.612 436.842 371.805 431.322C373.479 429.859 375.111 428.311 376.701 426.764C377.412 426.053 378.207 425.677 379.253 425.593C386.157 425.342 393.061 425.844 399.84 427.349ZM307.116 459.299C308.497 455.703 308.958 451.939 309.25 448.175C309.627 443.366 309.836 438.515 310.255 433.706C311.133 423.46 313.435 413.591 318.581 404.558C325.778 391.928 336.239 382.812 349.168 376.455C355.152 373.528 361.386 371.312 367.997 370.475C371.094 370.057 374.232 370.015 377.328 370.726C379.379 371.186 381.262 372.064 382.977 373.277C380.467 375.744 373.437 377.71 363.604 378.797C364.148 379.675 364.985 379.592 365.696 379.634C368.332 379.843 370.885 379.466 373.437 378.965C375.027 378.672 376.617 378.295 378.249 377.919C378.165 378.714 377.538 378.965 377.161 379.299C374.232 381.934 371.261 384.526 368.374 387.245C366.533 388.917 364.566 390.339 362.307 391.343C352.641 395.65 342.766 399.414 332.348 401.38C332.055 401.421 331.762 401.505 331.594 401.84C331.762 402.551 332.389 402.341 332.85 402.341C337.076 402.383 341.135 401.463 345.151 400.418C349.085 399.372 352.934 397.992 356.909 396.696C357.035 397.449 356.491 397.7 356.156 397.992C353.018 400.836 349.963 403.763 347.076 406.9C345.612 408.531 343.687 409.576 341.762 410.538C335.988 413.298 330.214 416.1 323.937 417.605C323.728 417.647 323.561 417.815 323.393 417.94C323.477 418.693 324.021 418.484 324.397 418.442C326.322 418.4 328.205 417.94 330.088 417.396C333.101 416.56 335.988 415.389 338.875 414.176C339.628 413.842 340.381 413.549 341.135 413.256C341.26 413.382 341.386 413.507 341.469 413.633C331.762 425.635 321.887 437.511 312.514 449.806C313.56 449.597 314.146 448.761 314.816 448.092C318.121 444.453 321.385 440.773 324.649 437.093C331.343 429.482 337.996 421.871 344.691 414.26C345.193 413.674 345.695 413.005 346.7 412.462C344.273 421.327 340.925 429.649 340.632 438.682C340.632 439.017 340.674 439.435 341.051 439.686C341.637 439.519 341.427 438.975 341.469 438.599C341.595 436.884 341.971 435.211 342.39 433.539C344.566 424.966 346.951 416.435 350.884 408.447C351.26 407.653 351.595 406.816 352.223 406.147C356.114 401.965 360.382 398.16 364.817 394.354C362.474 404.098 360.466 413.842 360.257 423.878C360.968 423.293 361.094 422.498 361.261 421.704C363.06 414.009 364.525 406.272 366.533 398.661C366.617 398.369 366.659 398.076 366.742 397.783C367.956 393.099 369.671 388.834 373.897 385.865C376.157 384.317 378.04 382.226 380.09 380.386C380.467 380.052 380.801 379.634 381.638 379.466C380.843 385.363 379.672 391.092 380.425 397.072C381.387 396.696 381.136 396.027 381.178 395.483C381.262 391.008 382.099 386.617 383.103 382.268C383.605 380.01 384.442 377.877 385.404 375.87C386.325 375.828 386.576 376.455 386.91 376.915C389.505 380.261 390.802 384.108 390.969 388.29C391.22 394.647 389.714 400.669 387.12 406.44C383.396 414.636 377.872 421.495 371.178 427.433C363.771 434.04 355.57 439.561 347.034 444.621C342.808 447.13 338.582 449.597 334.272 451.939C326.322 456.205 318.791 461.097 311.426 466.325C305.359 470.632 299.125 474.689 292.513 478.201C284.773 482.342 278.245 487.862 272.931 494.804C271.885 496.142 270.713 497.438 269.584 498.693C269.207 499.111 268.914 499.697 268.203 499.655C268.161 499.487 268.077 499.32 268.161 499.237C270.63 494.971 272.303 490.371 274.312 485.854C275.902 482.3 277.659 478.871 280.128 475.86C282.764 472.64 286.028 470.423 290.254 469.879C291.425 469.712 292.597 469.545 293.769 469.336C294.438 469.252 295.108 469.127 295.735 469.001C301.384 468.081 305.066 464.652 307.116 459.299ZM289.333 411.165C294.773 400.209 295.903 388.75 293.434 376.832C292.22 371.019 290.923 365.206 290.798 359.184C290.714 355.211 290.923 351.28 292.472 347.558C294.773 341.955 298.999 338.86 304.982 338.107C305.192 338.065 305.443 338.065 305.652 338.065C306.782 338.065 306.991 338.274 306.614 339.404C305.485 342.707 304.271 346.011 302.305 348.938C302.012 349.357 301.719 349.817 301.468 350.235C301.426 350.318 301.51 350.486 301.51 350.653C303.769 349.691 304.564 348.604 308.79 340.7C309.46 340.825 309.418 341.411 309.585 341.871C310.84 345.635 310.966 349.44 309.836 353.288C308.372 358.431 306.865 363.575 304.271 368.301C304.104 368.593 303.811 368.928 304.271 369.555C307.87 365.248 309.376 360.062 311.133 354.96C311.761 357.72 311.301 362.864 310.129 366.67C308.999 370.433 307.619 374.114 305.777 377.626C307.409 377.124 307.786 375.494 309.083 374.239C308.288 378.965 307.075 383.272 305.443 387.956C306.824 387.203 307.075 386.241 307.409 385.447C309.376 381.097 310.506 376.455 311.51 371.813C311.677 371.019 311.761 370.224 312.179 369.346C313.435 371.27 313.56 373.821 315.611 375.117C315.987 374.783 315.903 374.49 315.82 374.197C314.648 370.559 314.188 366.795 313.477 363.073C313.393 362.571 313.309 362.028 313.309 361.526C313.393 357.679 313.686 353.789 313.351 349.817C316.196 352.451 318.456 355.713 321.845 357.846C322.18 356.926 321.552 356.717 321.259 356.424C318.54 353.664 316.113 350.653 313.811 347.517C313.142 346.596 312.347 345.635 312.43 344.129C314.146 344.798 314.899 346.555 316.782 347.14C316.406 345.342 315.15 344.338 314.355 343.125C313.56 341.871 312.64 340.742 311.594 339.362C312.723 339.236 313.477 339.738 314.188 340.156C320.841 343.878 325.025 349.566 326.908 356.884C328.833 364.244 327.703 371.353 324.397 378.128C321.929 383.188 318.54 387.621 314.272 391.343C311.008 394.187 307.702 396.947 304.48 399.79C300.338 403.471 296.572 407.443 294.522 412.754C293.978 414.218 293.434 415.682 293.183 417.229C292.597 420.742 293.141 423.962 295.275 426.973C297.995 430.82 301.175 434.25 304.522 437.511C305.652 438.599 306.154 439.686 305.987 441.233C305.736 443.617 305.652 445.959 305.485 448.343C305.443 448.635 305.401 448.928 305.108 449.095C304.982 449.054 304.773 449.095 304.731 448.97C301.175 443.91 295.944 440.815 291.133 437.177C290.254 436.508 289.291 435.922 288.371 435.253C284.605 432.619 283.392 428.897 284.019 424.506C284.396 421.913 285.233 419.446 286.363 417.104C287.409 415.18 288.371 413.173 289.333 411.165ZM282.597 400.669C284.229 402.801 285.149 404.809 286.195 406.732C286.53 407.318 286.279 407.862 285.986 408.405C284.689 410.914 283.392 413.382 281.927 415.849C281.969 410.956 281.802 406.063 282.597 400.669ZM281.425 433.748C283.852 437.47 287.66 439.226 291.216 441.359C293.894 442.99 296.447 444.788 298.832 446.795C301.719 449.137 303.476 452.106 303.811 455.912C304.146 459.927 300.756 464.108 297.409 465.154C295.401 465.781 293.35 466.074 291.3 466.325C286.99 466.869 283.057 468.165 279.542 471.72C280.295 458.797 280.881 446.335 281.425 433.748ZM280.086 400.251C280.253 402.425 279.793 404.516 279.584 406.607C279.124 411.709 278.915 416.853 278.789 421.955C278.58 430.946 278.454 439.937 278.245 448.928C278.161 452.943 277.952 456.957 277.785 460.93C277.073 461.181 276.99 460.596 276.781 460.261C270.672 451.27 265.609 441.652 260.587 432.033C260.085 431.113 260.043 430.277 260.462 429.273C262.847 423.544 265.525 418.024 269.249 413.047C272.262 408.991 275.191 404.851 278.705 401.212C279.04 400.836 279.291 400.292 280.086 400.251ZM260.504 375.075C261.215 366.126 262.387 357.177 262.721 348.186C262.972 342.331 263.14 336.434 262.554 330.58C262.47 329.785 262.554 328.949 262.554 327.987C263.224 328.363 263.307 329.074 263.558 329.618C268.203 340.365 271.299 351.615 273.893 363.031C276.027 372.315 277.324 381.766 277.408 391.301C277.408 393.434 277.157 395.609 277.073 397.741C277.032 398.661 276.529 399.247 276.027 399.874C273.81 402.676 271.55 405.436 269.374 408.28C265.901 412.88 263.098 417.856 260.88 423.167C260.671 423.711 260.546 424.297 259.751 425.049C259.583 418.567 259.374 412.378 259.248 406.231C259.039 395.818 259.667 385.447 260.504 375.075ZM252.888 328.405C254.52 326.607 256.278 324.934 258.621 323.178C258.788 326.063 258.997 328.447 259.039 330.831C259.29 340.658 258.621 350.444 257.951 360.23C257.407 368.008 256.738 375.786 256.319 383.565C255.859 392.347 255.901 401.087 256.068 409.869C256.152 413.884 256.529 417.898 256.78 421.871C256.822 422.373 256.822 422.917 256.863 423.418C256.068 423.377 256.068 422.749 255.859 422.331C250.922 412.504 246.528 402.425 242.009 392.389C241.591 391.427 241.424 390.465 241.716 389.378C242.762 385.237 242.972 381.014 242.219 376.79C240.88 369.304 243.097 362.864 247.951 357.135C249.164 355.713 250.378 354.333 251.508 352.828C253.098 350.737 254.269 348.437 255.022 345.927C256.152 342.08 255.817 338.442 253.809 334.971C253.432 334.343 253.056 333.674 252.637 333.089C250.964 330.58 250.922 330.58 252.888 328.405ZM244.436 327.652C246.277 329.994 248.16 332.294 250.001 334.636C253.642 339.362 253.474 344.213 250.378 349.147C249.29 350.862 248.076 352.451 246.821 353.998C244.938 356.299 243.265 358.766 241.967 361.442C239.917 365.624 239.29 370.057 239.708 374.657C240.043 378.254 240.712 381.892 240.043 385.53C240.001 385.823 240.043 386.116 239.75 386.325C239.122 386.157 239.164 385.53 238.955 385.07C236.319 379.383 234.687 373.361 233.348 367.255C231.423 358.39 229.624 349.482 229.038 340.407C228.703 335.305 228.243 330.162 229.247 325.06C229.498 323.847 229.373 322.55 229.373 321.296C229.373 320.585 229.456 320 230.21 319.665C232.469 318.661 234.645 317.616 236.779 316.361C237.532 315.901 237.867 316.278 238.076 316.989C239.331 321.087 241.842 324.391 244.436 327.652ZM234.896 273.831C239.917 276.8 243.892 280.731 246.11 286.168C248.83 292.859 247.951 299.132 243.265 304.735C239.917 308.75 235.9 311.845 231.256 314.187C222.301 318.703 212.803 321.672 203.096 324.056C199.204 325.018 195.146 325.311 191.38 326.816C189.873 327.443 188.325 327.987 186.819 328.572C185.229 329.2 184.936 329.116 184.057 327.82C177.572 318.285 171.421 308.541 165.27 298.797C161.546 292.901 159.328 286.502 159.161 279.686C159.454 273.998 160.332 268.729 163.387 263.962C167.739 257.145 175.061 255.18 181.63 257.062C190.208 259.529 196.443 264.756 199.999 272.995C200.543 274.207 201.004 275.462 201.673 276.633C202.594 278.306 203.849 278.766 205.606 278.097C207.196 277.511 208.744 276.758 210.293 275.964C213.807 274.124 217.49 272.786 221.339 271.866C226.109 270.778 230.67 271.322 234.896 273.831ZM226.528 322.927C226.528 323.052 226.528 323.094 226.528 322.927C226.318 327.192 225.147 330.872 224.477 334.678C222.887 343.502 220.084 351.949 216.987 360.313C215.356 364.746 212.803 368.677 210.209 372.566C208.995 374.406 208.703 374.323 206.82 373.068C203.012 370.475 199.832 367.297 197.238 363.533C193.932 358.766 191.087 353.706 188.493 348.52C186.4 344.38 184.225 340.365 180.71 337.229C178.994 335.682 177.697 333.758 176.777 331.583C176.442 330.747 176.191 329.911 176.191 328.991C176.191 327.443 176.777 326.941 178.241 327.36C179.203 327.652 179.957 328.196 180.459 329.116C180.835 329.785 181.212 330.412 181.547 331.04C182.091 332.043 182.969 332.671 184.099 332.587C185.564 332.462 186.233 333.34 186.903 334.385C189.288 338.149 191.798 341.829 194.56 345.342C198.2 349.942 201.589 354.751 204.811 359.686C205.104 360.104 205.355 360.606 205.732 360.94C206.192 361.359 206.694 361.359 206.945 360.69C207.238 359.853 207.531 359.017 207.74 358.139C210.334 347.977 213.096 337.898 215.899 327.82C216.694 324.976 217.866 323.303 220.837 322.885C222.218 322.676 223.515 322.049 224.896 321.63C226.444 321.17 226.528 321.254 226.528 322.885V322.927ZM194.602 435.63C193.012 436.257 191.505 437.051 189.915 437.721C188.493 438.348 188.367 438.348 187.907 436.8C186.693 432.911 185.647 428.938 184.685 424.966C182.844 417.145 181.798 409.2 181.003 401.212C180.291 394.187 180.04 387.119 180.25 380.052C180.542 371.061 181.17 362.111 182.174 353.162C182.425 351.029 182.635 348.897 182.886 346.722C182.927 346.22 182.844 345.676 183.597 345.091C185.689 349.649 188.242 353.957 189.748 358.64C192.091 366.001 193.304 373.654 194.225 381.348C194.518 383.857 194.56 386.367 194.685 388.918C195.187 399.749 195.606 410.58 195.773 421.453C195.815 425.258 195.982 429.022 196.192 432.828C196.317 434.25 195.941 435.128 194.602 435.63ZM196.568 439.979C196.777 443.617 196.903 447.255 197.112 450.894C197.321 454.657 197.572 458.421 197.782 462.227C197.28 462.143 197.28 461.725 197.154 461.39C194.853 455.494 192.593 449.639 190.292 443.742C190.124 443.324 189.999 442.906 189.832 442.488C189.539 441.777 189.748 441.359 190.459 441.108C192.091 440.564 193.597 439.77 195.146 439.017C196.317 438.431 196.485 438.557 196.568 439.979ZM152.55 294.866C152.717 294.824 152.884 294.741 153.052 294.699C154.726 296.246 156.441 297.794 158.073 299.383C159.412 300.679 160.667 302.059 162.048 303.272C164.684 305.53 166.651 308.29 168.45 311.217C168.827 311.845 169.119 312.514 169.245 313.267C169.538 315.859 169.873 318.41 169.914 321.045C169.956 322.634 169.496 323.931 168.324 325.018C164.559 328.489 164.433 328.489 160.876 325.352C158.533 323.261 156.483 320.961 154.809 318.285C153.889 316.821 152.884 315.441 151.838 314.103C151.253 313.35 151.043 312.598 151.253 311.636C151.713 309.252 152.048 306.826 152.508 304.401C153.177 301.181 153.094 298.044 152.55 294.866ZM169.496 328.614C169.496 331.416 168.994 334.051 168.408 336.727C168.324 337.187 167.948 337.48 167.613 337.773C165.898 339.278 163.889 340.198 161.755 340.951C161.127 341.16 160.542 341.202 160.5 340.282C160.458 336.644 159.83 333.005 160.207 329.367C160.249 328.991 160.374 328.656 160.542 328.112C164.14 330.705 164.14 330.705 169.496 328.614ZM159.37 347.224C159.998 345.467 161.086 344.213 162.969 343.544C165.521 342.665 167.739 341.202 169.873 339.529C172.634 337.313 173.806 337.731 174.852 341.16C175.061 341.871 175.187 342.582 175.228 343.335C175.228 345.342 174.433 347.098 173.178 348.646C171.923 350.151 170.458 351.406 168.868 352.493C167.529 353.413 166.023 354.208 164.893 355.379C163.554 356.759 162.425 356.508 161.044 355.629C160.04 355.002 159.035 354.375 158.073 353.706C157.32 353.162 157.236 352.577 157.613 351.824C158.324 350.318 158.826 348.771 159.37 347.224ZM173.471 318.996C175.48 321.003 176.567 323.052 177.99 324.934C174.643 325.771 173.806 327.192 174.433 330.454C174.643 331.625 175.061 332.754 175.689 333.758C176.442 335.013 177.07 336.518 178.074 337.48C180.71 339.989 179.915 342.749 178.66 345.342C176.86 349.022 174.517 352.368 171.881 355.504C171.755 355.671 171.504 355.713 171.128 355.964C170.877 355.462 170.751 355.086 170.584 354.793C169.998 353.706 170.417 353.037 171.337 352.409C172.509 351.615 173.638 350.737 174.643 349.775C178.032 346.596 178.618 343.209 176.735 339.111C175.982 337.48 174.852 336.267 173.094 335.807C172.467 335.64 171.923 335.473 172.132 334.636C173.387 329.702 173.764 324.6 173.471 318.996ZM166.19 357.26C166.316 356.968 166.358 356.675 166.441 356.424C166.693 355.839 167.111 355.337 167.739 355.337C168.366 355.337 168.366 356.048 168.575 356.508C170.04 360.02 171.379 360.188 173.889 357.26C175.187 355.755 176.442 354.208 177.697 352.618C177.404 356.173 177.07 359.686 176.777 363.241C175.982 372.901 175.731 382.519 176.358 392.179C177.321 407.82 180.333 423.126 184.559 438.181C185.061 440.021 185.061 440.062 183.179 440.606C182.049 440.941 180.877 441.191 179.747 441.484C178.911 441.693 178.367 441.484 178.074 440.564C176.567 435.713 174.224 431.239 172.216 426.597C167.529 415.515 164.308 404.056 163.178 392.012C162.843 388.541 162.592 385.028 162.508 381.557C162.341 373.235 162.927 365.039 166.19 357.26ZM188.451 331.834C196.652 328.782 205.02 326.398 213.933 324.809C212.594 336.058 208.075 346.22 206.15 357.553C199.748 348.813 194.853 339.864 188.451 331.834ZM204.393 265.216C206.401 264.129 208.535 263.544 210.795 263.627C214.393 263.711 217.908 264.171 221.172 265.76C221.716 266.011 222.218 266.345 222.72 266.638C222.804 266.68 222.845 266.889 222.887 267.015C222.804 267.098 222.72 267.266 222.594 267.266C217.071 268.353 211.966 270.36 207.071 273.204C204.267 274.835 204.518 275.211 203.096 271.782C202.886 271.322 202.719 270.82 202.51 270.36C201.631 268.269 202.384 266.262 204.393 265.216ZM150.039 298.923C147.529 295.41 146.692 291.772 145.436 288.217C149.704 290.726 150.248 292.064 150.039 298.923ZM142.34 280.062C138.407 275.378 135.018 270.318 132.884 264.505C131.67 261.118 130.75 257.689 131.419 254.051C132.716 246.9 138.198 240.836 147.696 241.379C154.098 241.756 158.868 244.558 162.048 250.12C162.466 250.872 162.801 251.918 163.973 251.667C164.893 251.5 165.019 250.496 165.312 249.743C165.521 249.2 165.605 248.572 165.73 248.029C166.734 243.596 169.329 240.292 173.471 238.536C181.212 235.274 188.785 235.608 195.522 241.003C200.083 244.641 201.966 249.827 202.384 255.514C202.635 258.943 201.84 263.042 200.669 265.718C199.874 265.467 199.706 264.673 199.246 264.129C193.765 257.02 186.568 252.922 177.655 252.127C168.283 251.332 159.412 257.898 156.818 266.429C154.182 275.253 154.684 283.742 158.324 292.106C159.161 293.988 159.998 295.828 160.918 297.835C159.747 297.835 159.328 297.166 158.784 296.706C153.052 291.437 147.361 286.084 142.34 280.062ZM143.093 315.567C143.721 314.939 143.805 313.81 144.223 312.932C144.809 311.636 145.478 311.468 146.692 312.221C147.822 312.974 148.784 313.894 149.579 314.981C151.797 317.95 153.972 320.961 156.19 323.972C157.194 325.352 157.445 326.983 157.403 328.614C157.32 333.089 157.738 337.522 158.324 341.955C158.366 342.247 158.491 342.582 158.408 342.833C157.613 344.924 156.776 347.015 155.855 349.398C155.018 348.186 155.27 347.098 155.06 346.095C153.177 337.187 150.039 328.865 144.474 321.547C144.098 321.087 143.805 320.543 143.428 320.125C142.131 318.661 141.294 317.281 143.093 315.567ZM119.034 354.793C119.327 346.471 119.996 338.149 122.214 330.078C122.549 328.949 122.883 327.778 123.427 326.732C124.055 325.561 124.85 324.558 126.063 324.098C129.704 322.718 132.967 320.585 136.65 319.414C136.942 319.33 137.193 319.205 137.486 319.121C139.62 318.452 139.579 318.494 141.001 320.292C147.403 328.405 151.378 337.605 153.596 347.6C153.805 348.52 153.763 349.273 153.094 350.067C147.403 356.717 141.964 363.659 135.813 369.932C134.725 371.061 133.595 372.106 132.131 373.486C131.796 366.795 131.419 360.564 132.172 354.375C132.591 350.904 132.716 347.433 132.967 343.92C133.009 343.418 133.177 342.875 132.591 342.289C131.796 343.836 131.796 345.426 131.587 347.015C130.624 355.42 129.369 363.826 129.536 372.315C129.536 373.361 129.578 374.406 129.955 375.41C130.499 376.79 131.377 377.041 132.507 376.121C133.093 375.661 133.595 375.117 134.055 374.532C138.24 369.597 142.968 365.164 147.152 360.188C149.16 357.804 151.002 355.253 152.926 352.828C153.094 352.618 153.303 352.409 153.554 352.117C155.27 355.044 158.073 356.591 160.793 358.18C162.299 359.059 162.383 359.059 161.295 360.397C156.943 365.75 152.55 371.103 148.156 376.455C144.934 380.428 141.964 384.652 138.156 388.123C135.603 390.423 133.009 392.639 130.331 394.73C126.9 397.407 123.469 396.654 121.419 392.849C120.038 390.298 119.661 387.496 119.452 384.652C118.699 374.741 118.699 364.746 119.034 354.793ZM122.758 443.241C122.297 443.199 121.879 443.073 121.461 442.948C119.41 442.404 119.076 441.986 119.034 439.853C119.034 433.079 119.076 426.304 119.034 419.571C118.992 412.002 119.452 404.432 119.536 396.821C119.536 396.32 119.62 395.818 119.661 395.107C120.08 395.399 120.247 395.441 120.331 395.567C122.841 398.745 125.98 399.163 129.913 397.24C133.135 395.65 135.855 393.559 138.156 390.883C145.353 382.352 153.136 374.323 159.621 365.248C159.747 365.081 159.956 364.997 160.249 364.704C157.487 378.254 158.491 391.594 160.918 404.851C163.387 418.191 168.241 430.653 175.772 442.279C172.969 442.613 170.417 442.99 167.864 443.241C158.701 444.202 149.495 444.872 140.248 444.579C134.432 444.412 128.616 443.952 122.758 443.241ZM101 474.563C102.59 472.012 104.598 469.796 106.606 467.621C108.95 465.112 111.335 462.645 113.803 460.303C117.276 457.041 120.164 453.235 123.511 449.848C123.888 449.472 124.139 448.803 124.975 448.803C125.143 451.521 125.436 454.239 125.478 456.957C125.561 461.934 126.021 466.91 126.021 471.887C126.021 473.476 125.603 474.731 124.599 475.943C121.042 480.334 117.318 484.6 114.054 489.2C111.795 492.42 109.494 495.598 107.276 499.446C106.523 496.393 105.895 493.842 105.309 491.333C104.305 487.025 102.799 482.927 100.707 479.038C99.828 477.449 100.079 476.069 101 474.563ZM125.938 491.124C125.687 496.853 125.143 502.54 124.724 508.228C124.641 509.148 124.515 509.984 123.804 510.653C120.08 514.166 115.854 516.884 110.916 518.39C109.619 518.766 109.577 518.724 109.535 517.344C109.326 513.037 108.908 508.729 108.071 504.506C107.778 502.917 108.029 501.578 108.824 500.24C110.079 498.107 111.586 496.184 113.05 494.218C116.774 489.2 120.498 484.182 124.808 479.665C125.101 479.372 125.31 478.912 126.021 478.787C125.938 482.969 126.105 487.025 125.938 491.124ZM49.1984 405.394C49.8679 405.143 50.3281 405.645 50.7466 405.98C52.0018 406.9 53.299 407.778 54.4287 408.865C60.8306 414.762 67.1907 420.7 73.0487 427.182C79.9109 434.793 85.7689 443.115 90.4134 452.232C92.7984 456.874 94.0956 461.976 95.6019 466.952C96.104 468.625 96.5224 470.381 96.9827 472.096C96.8153 472.138 96.6898 472.18 96.5224 472.263C94.0955 468.709 91.3758 465.363 88.2376 462.352C83.4257 457.71 77.9861 453.988 72.3374 450.517C71.1658 449.806 70.1615 449.012 69.7431 447.632C69.5339 446.921 69.0736 446.335 68.6552 445.708C60.7888 433.622 54.4287 420.784 49.6168 407.193C49.4076 406.565 49.0728 406.063 49.1984 405.394ZM40.2022 430.36C41.332 423.377 42.922 416.518 44.8886 409.702C45.1396 408.782 45.5162 407.862 45.851 406.983C45.9347 406.732 46.1857 406.523 46.646 405.98C51.9182 420.7 58.1945 434.417 67.4418 446.712C66.6468 447.213 66.2702 446.712 65.8936 446.461C57.9853 442.028 49.9515 437.804 41.8341 433.748C39.7001 432.702 39.8256 432.744 40.2022 430.36ZM21.8751 427.977C23.5488 428.646 25.2225 429.231 26.8126 430.026C40.244 436.591 53.55 443.408 66.6049 450.726C72.1282 453.821 77.4422 457.25 82.4214 461.181C92.8403 469.461 99.7443 480.042 103.385 492.838C105.058 498.735 105.937 504.757 106.941 510.904C106.816 510.653 106.648 510.402 106.523 510.151C101.753 497.982 93.8026 488.071 84.3462 479.247C76.1869 471.636 67.5255 464.568 58.5711 457.919C50.9558 452.315 43.7588 446.168 36.1435 440.606C32.1684 437.721 28.2771 434.751 24.3857 431.74C22.9212 430.611 21.6241 429.273 20.0759 427.851C20.8709 427.517 21.4149 427.768 21.8751 427.977ZM20.3688 434.584C19.4483 432.995 18.5696 431.406 18.1093 429.566C18.6532 429.482 18.8625 429.691 19.0717 429.9C25.6828 436.466 33.0471 442.153 40.5369 447.715C50.2863 454.95 60.0775 462.101 69.4921 469.796C76.3124 475.358 82.9235 481.129 88.8652 487.611C95.309 494.636 100.665 502.331 104.473 511.113C104.724 511.74 104.975 512.368 105.226 512.995C105.268 513.121 105.184 513.246 105.142 513.413C104.807 513.497 104.556 513.33 104.347 513.162C97.694 507.893 90.4552 503.418 83.593 498.484C72.1281 490.287 60.6214 482.216 50.4118 472.472C38.5285 461.265 28.5281 448.635 20.3688 434.584ZM-9.38133 487.444C-5.40628 480.627 -0.803589 474.27 4.55227 468.458C6.68624 466.158 9.23865 464.318 12.0003 462.854C16.8122 460.303 21.7078 460.554 26.687 462.268C28.6536 462.938 30.4947 463.899 32.3358 464.903C32.8379 465.196 33.4237 465.363 33.9258 466.199C31.2479 467.036 28.7792 467.872 26.3104 468.625C18.3185 471.134 10.8287 474.73 3.92463 479.456C-0.594376 482.551 -5.15522 485.645 -9.8416 488.865C-9.92529 488.238 -9.59054 487.82 -9.38133 487.444ZM-2.51914 493.716C-4.90417 493.298 -7.37288 493.466 -10.26 492.378C-0.761745 485.353 7.816 477.909 18.7369 473.685C18.6951 474.563 18.1093 474.689 17.7327 474.981C11.0797 479.582 5.84939 485.52 1.20486 492.002C0.158792 493.382 -0.803588 494.051 -2.51914 493.716ZM-6.82893 513.288C-7.5821 512.661 -7.07999 512.117 -6.91261 511.615C-5.99208 509.022 -4.69495 506.597 -3.39783 504.171C2.66935 492.838 10.7031 483.262 21.4149 475.985C27.1473 472.096 33.5492 470.13 40.3696 469.378C41.6249 469.252 42.6291 469.461 43.5915 470.423C53.1316 480.125 63.7596 488.447 75.0153 496.016C75.1408 496.1 75.2245 496.226 75.7266 496.686C70.6637 495.598 66.061 494.846 61.3746 494.386C55.2656 493.8 49.1984 493.842 43.0894 494.344C33.5074 495.096 24.3857 497.731 15.6406 501.704C10.2429 504.171 5.09622 507.224 -0.134107 510.026C-2.26808 511.239 -4.52758 512.368 -6.82893 513.288ZM-0.97096 515.086C-1.55676 515.002 -2.14255 514.961 -2.68651 514.626C-2.60282 514.501 -2.56098 514.333 -2.43545 514.291C5.97492 510.151 14.1342 505.509 22.7957 501.955C30.16 498.944 37.8172 497.355 45.7673 496.895C56.1024 496.267 66.2702 497.146 76.3543 499.237C79.1577 499.822 81.6683 500.909 84.0115 502.582C89.3673 506.471 94.8906 510.11 100.372 513.873C102.087 515.044 103.719 516.382 105.142 517.888C106.23 519.017 106.23 519.226 105.393 520.564C104.682 521.693 103.636 522.363 102.548 522.99C99.7025 524.579 96.5643 525.248 93.3424 525.415C84.8483 525.875 76.3961 525.499 67.9439 524.746C52.3784 523.408 36.9803 520.857 21.5404 518.432C14.0506 517.219 6.51888 516.173 -0.97096 515.086ZM115.896 555.902C110.958 555.734 106.481 553.727 101.878 552.389C93.9282 550.089 86.1873 547.203 78.5719 544.025C69.9523 540.47 60.998 539.09 51.7508 539.258C48.236 539.299 44.8049 539.968 41.4156 540.763C38.3611 541.474 35.3066 542.143 32.2103 542.603C27.3565 543.314 22.712 542.519 18.3603 540.303C18.1511 540.219 17.9838 540.094 17.7745 539.968C13.4229 537.376 12.7116 533.988 15.6824 529.932C17.8582 526.921 20.578 524.579 23.8417 522.781C24.5949 522.363 25.3062 522.237 26.1849 522.363C30.955 523.074 35.725 523.784 40.5369 524.495C49.0728 525.708 57.6506 526.754 66.2283 527.464C72.17 527.966 78.1116 528.217 84.0533 528.552C88.656 528.803 93.2587 528.594 97.8614 527.841C100.372 527.465 102.757 526.586 104.975 525.332C106.355 524.537 107.569 523.575 108.322 522.153C108.615 521.61 108.908 521.15 109.577 521.066C114.724 520.272 119.117 517.888 123.176 514.751C123.427 514.584 123.636 514.375 124.18 514.501C124.055 515.964 123.971 517.47 123.762 519.017C122.256 530.894 120.289 542.687 118.03 554.438C117.653 556.027 117.569 555.985 115.896 555.902ZM132.633 602.614C131.001 604.37 128.909 605.332 126.607 605.75C121.628 606.586 116.607 607.046 111.628 607.966C111.042 608.092 110.456 608.05 109.828 608.05C107.694 608.05 107.234 607.757 107.15 605.708C106.983 599.937 108.448 594.71 112.339 590.277C112.799 589.775 113.218 589.608 113.887 589.942C117.109 591.573 120.582 592.41 124.013 593.246C128.741 594.333 133.469 595.086 138.7 593.706C136.942 597.135 135.018 600.021 132.633 602.614ZM151.294 546.869C148.575 559.038 145.646 571.207 142.089 583.168C141.629 584.715 141.085 586.262 140.541 587.81C139.495 590.904 137.152 592.159 134.055 592.326C133.595 592.368 133.177 592.326 132.716 592.326C129.62 592.368 126.691 591.615 123.762 590.695C121.21 589.901 118.657 589.106 116.105 588.353C114.808 587.977 114.306 587.14 114.473 585.844C114.64 584.757 114.808 583.628 114.975 582.54C116.272 573.633 118.322 564.893 120.164 556.069C122.632 544.15 124.683 532.106 126.231 520.021C128.699 500.617 128.616 481.171 128.197 461.683C128.114 457.459 127.737 453.235 127.444 449.012C127.277 446.252 127.068 446.293 130.038 446.544C133.511 446.837 137.026 447.046 140.499 447.046C148.617 447.088 156.734 446.963 164.81 446.126C167.655 445.833 167.655 445.959 167.404 448.803C166.86 454.365 166.316 459.885 165.856 465.447C164.893 477.323 163.178 489.074 161.127 500.784C158.408 516.341 154.726 531.563 151.294 546.869ZM165.939 547.538C165.898 549.838 165.856 549.88 163.512 549.921C160.667 549.963 157.864 550.298 155.06 550.632C153.428 550.841 153.345 550.758 153.763 549.169C155.479 542.018 157.403 534.908 158.952 527.715C161.337 516.592 163.805 505.509 165.563 494.26C165.688 493.549 165.856 492.838 166.023 492.085C166.232 510.695 166.441 529.095 165.939 547.538ZM197.07 586.346C201.506 588.771 206.025 591.03 210.669 592.995C211.464 593.33 212.343 593.622 213.347 594.501C210.585 595.337 208.033 595.295 205.523 595.421C200.167 595.713 194.811 595.044 189.455 594.919C185.438 594.793 181.463 594.375 177.446 594.292C175.312 594.25 173.722 593.455 172.467 591.866C170.207 588.98 169.496 585.593 169.622 581.997C169.663 580.993 170.082 580.491 171.17 580.575C172.592 580.7 174.015 580.7 175.396 580.951C179.747 581.62 184.141 581.662 188.534 581.411C190.083 581.328 191.338 581.62 192.426 582.917C193.681 584.38 195.355 585.384 197.07 586.346ZM198.116 476.821C197.949 482.551 197.74 488.28 197.614 494.009C197.489 500.909 197.447 507.851 197.489 514.751C197.531 525.917 197.196 537.083 196.485 548.207C195.899 557.407 195.146 566.607 193.556 575.682C193.053 578.609 192.76 578.944 189.832 578.986C184.852 579.069 179.873 579.278 174.894 578.609C173.806 578.442 172.676 578.484 171.546 578.442C169.58 578.358 169.036 578.024 168.575 576.142C167.948 573.591 167.739 570.998 167.739 568.405C167.655 556.947 167.529 545.489 168.032 534.03C168.073 533.361 168.032 532.692 168.032 532.023C168.073 532.023 168.073 532.023 168.115 532.023C168.115 520.062 168.157 508.06 168.115 496.1C168.115 493.047 167.864 489.995 167.446 486.984C167.069 484.433 167.404 481.923 167.822 479.456C169.329 470.256 169.914 461.014 170.291 451.688C170.333 450.141 170.207 448.552 169.998 447.004C169.873 446.084 170.249 445.624 171.17 445.499C175.605 444.955 179.831 443.492 184.225 442.53C185.773 442.195 185.815 442.195 186.4 443.868C188.911 451.354 192.091 458.588 195.271 465.781C195.606 466.534 195.857 467.329 196.317 467.998C198.075 470.758 198.242 473.769 198.116 476.821ZM197.572 388.959C197.07 381.599 196.317 374.281 194.685 367.088C194.602 366.67 194.392 366.252 194.769 365.499C196.024 366.962 197.112 368.259 198.242 369.513C200.543 371.981 202.97 374.281 205.941 375.87C208.744 377.375 209.79 376.999 211.841 374.532C216.234 369.262 218.619 363.031 220.837 356.717C222.804 351.113 224.226 345.3 225.691 339.571C225.816 339.027 225.9 338.4 226.486 337.814C226.611 338.86 226.82 339.78 226.82 340.7C227.239 350.946 229.582 360.857 231.381 370.893C233.306 381.599 237.867 391.259 242.26 401.003C248.202 414.26 254.604 427.266 261.634 439.979C262.68 441.861 262.68 441.902 260.713 442.99C257.156 444.955 253.349 446.21 249.374 446.837C243.306 447.799 237.239 447.966 231.13 447.464C223.557 446.879 215.983 446.795 208.535 449.012C206.192 449.723 203.849 450.517 201.673 451.646C201.171 451.897 200.711 452.357 199.916 452.19C199.623 450.643 199.497 449.012 199.455 447.381C199.079 434.877 198.786 422.415 198.326 409.911C198.075 402.927 198.075 395.943 197.572 388.959ZM221.214 562.718C213.891 561.338 206.903 558.787 199.79 556.612C198.618 556.278 198.326 555.567 198.409 554.438C198.66 551.385 198.786 548.374 199.037 545.321C200.208 531.897 200.585 518.473 200.711 505.008C200.752 501.286 200.794 497.564 200.836 493.842C200.836 492.88 200.962 491.96 201.213 490.956C207.615 515.128 213.389 539.425 223.096 562.509C222.385 563.094 221.799 562.844 221.214 562.718ZM242.26 584.631C242.721 586.973 242.679 588.144 242.009 590.444C241.047 593.664 239.582 596.633 237.909 599.561C237.574 600.146 237.114 600.648 236.653 601.108C235.691 602.028 234.896 602.154 233.85 601.443C230.67 599.268 228.661 596.257 227.95 592.493C228.076 592.368 228.243 592.284 228.369 592.159C229.331 593.246 230.335 594.333 231.298 595.421C231.758 595.922 232.134 596.466 232.637 596.884C233.808 597.93 234.227 597.93 235.566 597.01C236.695 596.215 237.532 595.17 238.202 593.999C239.833 591.113 241.842 588.353 242.26 584.631ZM239.917 581.829C240.336 587.266 238.034 591.741 234.478 595.881C230.837 592.368 228.578 588.437 228.369 583.46C228.201 579.32 228.201 575.138 227.699 570.998C227.323 567.695 226.276 564.474 225.105 561.338C219.163 545.154 213.807 528.761 209.288 512.117C206.443 501.704 204.058 491.207 202.259 480.585C201.673 477.031 201.38 477.658 204.518 476.821C210.502 475.232 216.611 474.312 222.804 474.312C224.645 474.312 224.728 474.354 224.686 476.152C224.561 483.889 225.649 491.584 226.36 499.278C227.113 507.349 227.992 515.379 229.164 523.408C230.168 530.308 231.423 537.208 232.762 544.067C233.515 547.914 233.85 551.845 234.519 555.734C235.356 560.794 236.277 565.854 237.825 570.747C238.955 574.302 239.582 578.066 239.917 581.829ZM278.663 554.647C275.358 554.103 272.052 553.685 268.705 554.396C267.073 554.731 265.525 555.232 264.102 556.027C262.512 556.863 260.922 557.658 259.416 558.62C254.478 561.84 248.997 563.22 243.223 563.847C242.177 563.973 241.131 564.056 240.126 564.224C238.955 564.391 238.369 563.889 238.16 562.718C237.616 559.665 236.905 556.612 236.319 553.518C234.938 546.199 233.306 538.965 232.344 531.563C231.465 524.537 230.628 517.553 229.833 510.528C228.996 503.084 228.159 495.598 227.783 488.113C227.699 485.938 227.615 485.938 229.875 485.938C230.168 485.938 230.461 485.938 230.754 485.938C233.599 485.98 233.599 485.98 234.017 488.782C235.105 496.435 236.193 504.088 237.658 511.699C238.034 513.664 238.578 515.588 239.415 517.428C240.503 519.77 242.26 521.359 244.729 522.195C248.244 523.366 251.842 524.412 255.483 525.164C256.696 525.415 257.575 525.959 258.37 527.004C260.713 530.183 263.433 533.026 266.278 535.787C272.973 542.268 279.835 548.5 286.99 554.48C287.325 554.772 287.66 555.065 288.371 555.692C284.772 555.943 281.718 555.107 278.663 554.647ZM332.222 577.062C329.753 577.397 327.41 576.728 325.151 575.724C319.46 573.131 313.811 570.496 308.539 567.109C294.396 558.076 281.592 547.329 269.5 535.703C266.989 533.277 264.688 530.643 262.47 527.966C262.219 527.632 261.801 527.381 261.885 526.544C265.943 527.214 269.877 527.883 273.852 528.51C280.756 529.597 287.66 530.768 294.564 531.73C297.786 532.19 300.547 533.654 302.849 535.787C305.108 537.919 307.116 540.303 308.748 543.021C311.133 546.994 313.728 550.758 317.033 554.061C318.121 555.149 319.209 556.32 320.966 556.403C321.594 556.445 321.803 556.947 322.054 557.407C325.695 563.304 328.707 569.535 332.055 575.557C332.222 575.933 332.557 576.393 332.222 577.062ZM338.666 552.18C338.415 559.247 337.452 566.231 335.821 573.131C335.569 574.177 335.36 575.306 334.314 576.142C333.226 575.306 332.808 574.26 332.264 573.298C329.209 567.611 326.155 561.924 323.1 556.236C322.724 555.567 322.556 554.94 322.724 554.145C323.602 550.256 323.728 546.367 322.473 542.519C322.389 542.31 322.431 542.101 322.431 541.85C323.1 541.516 323.351 542.143 323.728 542.394C327.829 544.945 332.138 547.161 336.616 549.001C338.708 549.796 338.75 549.796 338.666 552.18ZM400.718 549.503C393.647 551.009 386.534 552.221 379.379 552.891C372.809 553.518 366.198 553.811 359.587 552.807C356.282 552.305 352.934 551.971 349.712 551.176C340.13 548.75 331.218 544.652 322.724 539.634C321.845 539.132 321.301 538.421 320.966 537.459C319.837 534.156 318.832 530.81 317.912 527.423C317.745 526.837 317.577 526.294 317.452 525.708C316.908 523.073 315.192 521.61 312.682 520.941C310.255 520.272 307.744 519.853 305.234 519.644C302.556 519.435 299.961 518.85 297.325 518.264C296.74 518.139 296.196 517.888 295.735 517.512C292.179 514.793 288.789 511.908 285.693 508.688C285.484 508.479 285.275 508.27 285.358 507.809C288.078 507.809 290.756 507.642 293.434 507.851C305.234 508.646 317.075 508.855 328.875 507.809C329.168 507.768 329.46 507.81 329.753 507.726C331.804 507.391 333.31 508.019 334.9 509.524C338.457 512.911 342.599 515.63 346.616 518.39C361.345 528.552 377.203 536.414 394.024 542.478C397.957 543.899 401.89 545.196 405.823 546.576C406.493 546.827 407.162 547.078 408.125 547.454C405.489 548.583 403.062 549.001 400.718 549.503ZM405.405 543.899C388.291 538.588 371.973 531.396 356.24 522.823C349.336 519.059 343.101 514.333 337.159 509.315C336.532 508.813 335.904 508.27 334.984 507.517C336.364 507.308 337.369 507.057 338.457 506.931C350.465 505.635 362.223 503.084 373.73 499.404C374.023 499.32 374.316 499.278 374.609 499.153C375.404 498.818 375.989 499.027 376.575 499.697C381.094 504.548 385.697 509.315 389.881 514.459C396.576 522.697 402.643 531.312 407.622 540.638C408.166 541.683 408.669 542.77 409.171 543.858C409.296 544.109 409.338 544.401 409.464 545.029C407.874 544.903 406.66 544.318 405.405 543.899Z" fill="black"/>
<path d="M49.5335 309.378C46.6882 306.994 43.6755 304.778 40.1607 303.44C39.7005 303.272 39.1983 302.896 38.7381 303.398C38.3196 303.858 38.487 304.36 38.6962 304.862C39.282 306.325 39.6586 307.831 39.9097 309.378C40.3699 312.389 40.3699 315.442 40.4118 318.495C40.4536 323.053 39.7423 327.528 39.9097 332.086C39.9097 332.922 39.9097 333.717 39.9097 334.553C39.826 339.99 41.0813 345.008 44.1358 349.566C45.0982 350.988 45.8513 352.535 46.7719 353.957C49.5335 358.223 52.2114 362.488 54.4291 367.047C54.8056 367.758 55.2241 368.51 55.7262 369.138C56.9396 370.601 58.1949 370.601 59.5339 369.263C60.5381 368.218 61.1657 366.963 61.7097 365.667C63.6763 360.732 64.7642 355.588 65.0153 350.235C65.2663 345.384 64.7642 340.575 64.0529 335.808C62.4629 325.144 57.7346 316.32 49.5335 309.378ZM59.241 365.249C58.8644 366.001 58.6133 367.172 57.6091 367.172C56.7304 367.214 56.4794 366.085 56.1028 365.416C52.5461 359.394 49.115 353.33 45.4747 347.35C43.0479 343.335 41.8344 339.153 42.0018 334.428C42.1692 329.451 42.1273 324.475 42.4621 319.498C42.7131 315.609 42.2947 311.762 41.6252 307.956C41.5415 307.538 41.3742 307.12 41.5415 306.66C42.4202 306.493 43.006 307.078 43.5918 307.454C51.793 312.849 57.4417 320.167 60.4126 329.493C62.0444 334.679 63.1323 340.073 63.2579 345.468C63.3834 352.326 62.17 359.017 59.241 365.249Z" fill="black"/>
<path d="M99.9957 400.543C100.958 399.037 101.586 397.323 102.004 395.608C103.05 391.426 103.469 387.119 103.427 383.355C103.469 374.406 101.962 366.251 99.5772 358.222C98.7822 355.504 97.9454 352.827 97.0667 350.151C96.7319 349.189 96.1461 348.102 94.9746 348.102C93.803 348.102 93.5519 349.272 93.2172 350.151C92.464 352.158 91.8364 354.207 90.7903 356.131C88.0287 361.107 86.4386 366.502 84.9742 371.98C84.1373 375.117 84.0536 378.379 84.6394 381.473C86.0202 388.792 89.6187 395.106 94.0959 400.919C96.0206 403.47 98.2801 403.219 99.9957 400.543ZM96.8156 400.166C95.3093 400.417 94.9327 398.535 94.1795 397.532C91.669 394.186 89.8697 390.464 88.2379 386.575C85.3507 379.842 85.8529 373.193 88.6982 366.669C90.3719 362.78 92.464 359.058 93.803 355.044C94.1795 353.914 94.3888 352.743 95.1419 351.573C96.0206 352.2 96.0625 352.994 96.2717 353.664C98.9496 362.446 100.958 371.353 101.376 380.553C101.628 386.157 101.125 391.719 99.0751 396.988C98.5312 398.201 98.1546 399.957 96.8156 400.166Z" fill="black"/>
<path d="M13.1299 383.273C11.7491 377.46 9.57328 372.065 5.30533 367.758C3.04583 365.458 2.41819 365.625 1.33028 368.72C-1.64055 377.251 -2.97951 386.033 -2.60293 395.024C-2.35187 401.171 -1.01291 407.11 1.49765 412.713C2.08345 414.01 2.75293 415.264 3.799 416.226C4.84506 417.146 5.7656 417.104 6.68614 416.059C7.31378 415.39 7.64852 414.553 7.94142 413.717C9.57328 409.577 10.9959 405.353 12.3349 401.088C13.4228 397.575 13.7575 393.936 13.9249 391.218C14.0086 387.956 13.6739 385.573 13.1299 383.273ZM10.3264 398.537C9.07117 403.471 7.18825 408.113 5.4727 412.881C5.38902 413.09 5.22165 413.215 5.13796 413.382C4.42664 413.424 4.25927 412.839 4.00821 412.462C2.50187 410.288 1.62318 407.862 1.12107 405.269C-0.72001 396.195 -0.385269 387.12 1.33028 378.045C1.83239 375.369 2.41819 372.692 3.67347 369.807C5.26349 371.647 6.26771 373.487 7.27194 375.285C11.1633 382.603 12.4186 390.298 10.3264 398.537Z" fill="black"/>
<path d="M1.33006 304.401C0.367675 303.063 -0.929446 303.272 -1.64077 304.736C-1.89183 305.196 -2.01736 305.697 -2.14288 306.199C-3.14711 311.343 -3.64922 316.487 -2.645 321.714C-1.64077 326.9 0.200305 331.709 4.04983 335.556C5.55616 337.062 7.22987 338.233 9.322 338.735C11.1212 339.153 11.7907 338.776 11.7489 336.978C11.707 335.013 12.2091 333.131 12.4602 331.249C12.6694 329.493 12.8786 327.694 13.0042 326.733C13.046 322.76 12.251 320.083 10.2844 316.612C7.77382 312.263 4.25904 308.541 1.33006 304.401ZM10.5354 328.531C10.2844 331.124 10.0333 333.675 9.23832 336.226C5.89091 335.222 3.84061 332.922 2.58534 329.994C-0.552863 322.718 -1.72446 315.19 0.325833 307.412C1.079 307.203 1.24637 307.788 1.53927 308.165C3.58956 311.009 5.63985 313.81 7.6483 316.654C10.1589 320.251 10.9539 324.223 10.5354 328.531Z" fill="black"/>
</g>
<defs>
<clipPath id="clip0_1065_4486">
<rect width="390" height="800" fill="white"/>
</clipPath>
</defs>
</svg>
